<?xml version="1.0" standalone="no"?><!DOCTYPE svg PUBLIC "-//W3C//DTD SVG 1.1//EN" "http://www.w3.org/Graphics/SVG/1.1/DTD/svg11.dtd"><svg t="1722243372716" class="icon" viewBox="0 0 1024 1024" version="1.1" xmlns="http://www.w3.org/2000/svg" p-id="3480" xmlns:xlink="http://www.w3.org/1999/xlink" width="200" height="200"><path d="M478.402 83.89c13.224-28.67 53.972-28.67 67.196 0l112.535 243.975L924.942 359.5c31.354 3.717 43.945 42.471 20.765 63.907l-197.259 182.42 52.362 263.526c6.154 30.968-26.812 54.919-54.363 39.497L512 777.616 277.552 908.85c-27.55 15.422-60.516-8.529-54.363-39.497l52.363-263.526-197.259-182.42c-23.18-21.436-10.589-60.19 20.765-63.907l266.809-31.635L478.402 83.89zM512 182.951l-88.959 192.862a37 37 0 0 1-29.241 21.245l-210.913 25.007L338.82 566.267a37.001 37.001 0 0 1 11.169 34.376L308.597 808.96l185.331-103.74a37 37 0 0 1 36.144 0l185.331 103.74-41.393-208.317a37.002 37.002 0 0 1 11.17-34.376l155.933-144.202L630.2 397.058a36.998 36.998 0 0 1-29.241-21.245L512 182.951z" fill="#1296db" p-id="3481"></path></svg>